<?xml version="1.0" standalone="no"?>
<!DOCTYPE svg PUBLIC "-//W3C//DTD SVG 1.1//EN"
"http://www.w3.org/Graphics/SVG/1.1/DTD/svg11.dtd">

<svg width="324" height="548" view_box="0 0 324 548"
xmlns="http://www.w3.org/2000/svg"
xmlns:link="http://www.w3.org/1999/xlink">\n\n<desc>Généré par Mocodo 2.3.7 le Fri, 17 May 2019 08:38:25</desc>

<rect id="frame" x="0" y="0" width="324" height="548" fill="#f5f5f5" stroke="none" stroke-width="0"/>

<!-- Association ASK -->
<line x1="170" y1="253" x2="57" y2="253" stroke="#bf812d" stroke-width="2"/>
<text x="107" y="270.0" fill="#01665e" font-family="Verdana" font-size="12">0,N</text>
<line x1="57" y1="379" x2="57" y2="253" stroke="#bf812d" stroke-width="2"/>
<text x="62.0" y="295" fill="#01665e" font-family="Verdana" font-size="12">1,1</text>
<g id="association-ASK">
	<path d="M 63 228 a 14 14 90 0 1 14 14 V 253 h -40 V 242 a 14 14 90 0 1 14 -14" fill="#dfc27d" stroke="#dfc27d" stroke-width="0"/>
	<path d="M 77 253.0 v 11 a 14 14 90 0 1 -14 14 H 51 a 14 14 90 0 1 -14 -14 V 253.0 H 40" fill="#f6e8c3" stroke="#f6e8c3" stroke-width="0"/>
	<rect x="37" y="228" width="40" height="50" fill="none" rx="14" stroke="#bf812d" stroke-width="2"/>
	<line x1="37" y1="253" x2="77" y2="253" stroke="#bf812d" stroke-width="1"/>
	<text x="44" y="245.7" fill="#000000" font-family="Verdana" font-size="12">ASK</text>
</g>

<!-- Association ANSWER -->
<line x1="170" y1="253" x2="278" y2="253" stroke="#bf812d" stroke-width="2"/>
<text x="211" y="270.0" fill="#01665e" font-family="Verdana" font-size="12">0,N</text>
<line x1="278" y1="379" x2="278" y2="253" stroke="#bf812d" stroke-width="2"/>
<text x="283.0" y="295" fill="#01665e" font-family="Verdana" font-size="12">1,1</text>
<g id="association-ANSWER">
	<path d="M 298 228 a 14 14 90 0 1 14 14 V 253 h -68 V 242 a 14 14 90 0 1 14 -14" fill="#dfc27d" stroke="#dfc27d" stroke-width="0"/>
	<path d="M 312 253.0 v 11 a 14 14 90 0 1 -14 14 H 258 a 14 14 90 0 1 -14 -14 V 253.0 H 68" fill="#f6e8c3" stroke="#f6e8c3" stroke-width="0"/>
	<rect x="244" y="228" width="68" height="50" fill="none" rx="14" stroke="#bf812d" stroke-width="2"/>
	<line x1="244" y1="253" x2="312" y2="253" stroke="#bf812d" stroke-width="1"/>
	<text x="251" y="245.7" fill="#000000" font-family="Verdana" font-size="12">ANSWER</text>
</g>

<!-- Association IS -->
<line x1="170" y1="253" x2="170" y2="127" stroke="#bf812d" stroke-width="2"/>
<text x="175.0" y="169" fill="#01665e" font-family="Verdana" font-size="12">1,1</text>
<line x1="170" y1="43" x2="170" y2="127" stroke="#bf812d" stroke-width="2"/>
<text x="175.0" y="94" fill="#01665e" font-family="Verdana" font-size="12">1,N</text>
<g id="association-IS">
	<path d="M 170 102 a 14 14 90 0 1 14 14 V 127 h -28 V 116 a 14 14 90 0 1 14 -14" fill="#dfc27d" stroke="#dfc27d" stroke-width="0"/>
	<path d="M 184 127.0 v 11 a 14 14 90 0 1 -14 14 H 170 a 14 14 90 0 1 -14 -14 V 127.0 H 28" fill="#f6e8c3" stroke="#f6e8c3" stroke-width="0"/>
	<rect x="156" y="102" width="28" height="50" fill="none" rx="14" stroke="#bf812d" stroke-width="2"/>
	<line x1="156" y1="127" x2="184" y2="127" stroke="#bf812d" stroke-width="1"/>
	<text x="163" y="119.7" fill="#000000" font-family="Verdana" font-size="12">IS</text>
</g>

<!-- Association CAN HAVE -->
<line x1="57" y1="379" x2="170" y2="379" stroke="#bf812d" stroke-width="2"/>
<text x="104" y="396.0" fill="#01665e" font-family="Verdana" font-size="12">0,N</text>
<line x1="278" y1="379" x2="170" y2="379" stroke="#bf812d" stroke-width="2"/>
<text x="215" y="396.0" fill="#01665e" font-family="Verdana" font-size="12">1,1</text>
<g id="association-CAN HAVE">
	<path d="M 195 354 a 14 14 90 0 1 14 14 V 379 h -78 V 368 a 14 14 90 0 1 14 -14" fill="#dfc27d" stroke="#dfc27d" stroke-width="0"/>
	<path d="M 209 379.0 v 11 a 14 14 90 0 1 -14 14 H 145 a 14 14 90 0 1 -14 -14 V 379.0 H 78" fill="#f6e8c3" stroke="#f6e8c3" stroke-width="0"/>
	<rect x="131" y="354" width="78" height="50" fill="none" rx="14" stroke="#bf812d" stroke-width="2"/>
	<line x1="131" y1="379" x2="209" y2="379" stroke="#bf812d" stroke-width="1"/>
	<text x="138" y="371.7" fill="#000000" font-family="Verdana" font-size="12">CAN HAVE</text>
</g>

<!-- Association BELONGS TO -->
<line x1="170" y1="505" x2="57" y2="505" stroke="#bf812d" stroke-width="2"/>
<text x="120" y="522.0" fill="#01665e" font-family="Verdana" font-size="12">0,N</text>
<line x1="57" y1="379" x2="57" y2="505" stroke="#bf812d" stroke-width="2"/>
<text x="62.0" y="472" fill="#01665e" font-family="Verdana" font-size="12">0,N</text>
<g id="association-BELONGS TO">
	<path d="M 91 480 a 14 14 90 0 1 14 14 V 505 h -96 V 494 a 14 14 90 0 1 14 -14" fill="#dfc27d" stroke="#dfc27d" stroke-width="0"/>
	<path d="M 105 505.0 v 11 a 14 14 90 0 1 -14 14 H 23 a 14 14 90 0 1 -14 -14 V 505.0 H 96" fill="#f6e8c3" stroke="#f6e8c3" stroke-width="0"/>
	<rect x="9" y="480" width="96" height="50" fill="none" rx="14" stroke="#bf812d" stroke-width="2"/>
	<line x1="9" y1="505" x2="105" y2="505" stroke="#bf812d" stroke-width="1"/>
	<text x="16" y="497.7" fill="#000000" font-family="Verdana" font-size="12">BELONGS TO</text>
</g>

<!-- Entity ANSWERS -->
<g id="entity-ANSWERS">
	<g id="frame-ANSWERS">
		<rect x="241" y="303" width="74" height="25" fill="#80cdc1" stroke="#80cdc1" stroke-width="0"/>
		<rect x="241" y="328.0" width="74" height="127" fill="#c7eae5" stroke="#c7eae5" stroke-width="0"/>
		<rect x="241" y="303" width="74" height="152" fill="none" stroke="#35978f" stroke-width="2"/>
		<line x1="241" y1="328" x2="315" y2="328" stroke="#35978f" stroke-width="1"/>
	</g>
	<text x="247" y="320.7" fill="#000000" font-family="Verdana" font-size="12">ANSWERS</text>
	<text x="246" y="345.7" fill="#000000" font-family="Verdana" font-size="12">id</text>
	<line x1="246" y1="348" x2="258" y2="348" stroke="#000000" stroke-width="1"/>
	<text x="246" y="362.7" fill="#000000" font-family="Verdana" font-size="12">user_id</text>
	<text x="246" y="379.8" fill="#000000" font-family="Verdana" font-size="12">content</text>
	<text x="246" y="396.8" fill="#000000" font-family="Verdana" font-size="12">status</text>
	<text x="246" y="413.8" fill="#000000" font-family="Verdana" font-size="12">validation</text>
	<text x="246" y="430.8" fill="#000000" font-family="Verdana" font-size="12">createdAt</text>
	<text x="246" y="447.8" fill="#000000" font-family="Verdana" font-size="12">updatedAt</text>
</g>

<!-- Entity TAGS -->
<g id="entity-TAGS">
	<g id="frame-TAGS">
		<rect x="147" y="471" width="46" height="25" fill="#80cdc1" stroke="#80cdc1" stroke-width="0"/>
		<rect x="147" y="496.0" width="46" height="43" fill="#c7eae5" stroke="#c7eae5" stroke-width="0"/>
		<rect x="147" y="471" width="46" height="68" fill="none" stroke="#35978f" stroke-width="2"/>
		<line x1="147" y1="496" x2="193" y2="496" stroke="#35978f" stroke-width="1"/>
	</g>
	<text x="153" y="488.7" fill="#000000" font-family="Verdana" font-size="12">TAGS</text>
	<text x="152" y="513.8" fill="#000000" font-family="Verdana" font-size="12">id</text>
	<line x1="152" y1="516" x2="164" y2="516" stroke="#000000" stroke-width="1"/>
	<text x="152" y="530.8" fill="#000000" font-family="Verdana" font-size="12">name</text>
</g>

<!-- Entity USERS -->
<g id="entity-USERS">
	<g id="frame-USERS">
		<rect x="134" y="177" width="72" height="25" fill="#80cdc1" stroke="#80cdc1" stroke-width="0"/>
		<rect x="134" y="202.0" width="72" height="127" fill="#c7eae5" stroke="#c7eae5" stroke-width="0"/>
		<rect x="134" y="177" width="72" height="152" fill="none" stroke="#35978f" stroke-width="2"/>
		<line x1="134" y1="202" x2="206" y2="202" stroke="#35978f" stroke-width="1"/>
	</g>
	<text x="149" y="194.7" fill="#000000" font-family="Verdana" font-size="12">USERS</text>
	<text x="139" y="219.7" fill="#000000" font-family="Verdana" font-size="12">id</text>
	<line x1="139" y1="222" x2="151" y2="222" stroke="#000000" stroke-width="1"/>
	<text x="139" y="236.7" fill="#000000" font-family="Verdana" font-size="12">firstName</text>
	<text x="139" y="253.8" fill="#000000" font-family="Verdana" font-size="12">lastName</text>
	<text x="139" y="270.8" fill="#000000" font-family="Verdana" font-size="12">username</text>
	<text x="139" y="287.8" fill="#000000" font-family="Verdana" font-size="12">email</text>
	<text x="139" y="304.8" fill="#000000" font-family="Verdana" font-size="12">password</text>
	<text x="139" y="321.8" fill="#000000" font-family="Verdana" font-size="12">role_id</text>
</g>

<!-- Entity ROLES -->
<g id="entity-ROLES">
	<g id="frame-ROLES">
		<rect x="144" y="9" width="52" height="25" fill="#80cdc1" stroke="#80cdc1" stroke-width="0"/>
		<rect x="144" y="34.0" width="52" height="43" fill="#c7eae5" stroke="#c7eae5" stroke-width="0"/>
		<rect x="144" y="9" width="52" height="68" fill="none" stroke="#35978f" stroke-width="2"/>
		<line x1="144" y1="34" x2="196" y2="34" stroke="#35978f" stroke-width="1"/>
	</g>
	<text x="149" y="26.7" fill="#000000" font-family="Verdana" font-size="12">ROLES</text>
	<text x="149" y="51.8" fill="#000000" font-family="Verdana" font-size="12">id</text>
	<line x1="149" y1="54" x2="161" y2="54" stroke="#000000" stroke-width="1"/>
	<text x="149" y="68.8" fill="#000000" font-family="Verdana" font-size="12">name</text>
</g>

<!-- Entity QUESTIONS -->
<g id="entity-QUESTIONS">
	<g id="frame-QUESTIONS">
		<rect x="15" y="303" width="84" height="25" fill="#80cdc1" stroke="#80cdc1" stroke-width="0"/>
		<rect x="15" y="328.0" width="84" height="127" fill="#c7eae5" stroke="#c7eae5" stroke-width="0"/>
		<rect x="15" y="303" width="84" height="152" fill="none" stroke="#35978f" stroke-width="2"/>
		<line x1="15" y1="328" x2="99" y2="328" stroke="#35978f" stroke-width="1"/>
	</g>
	<text x="20" y="320.7" fill="#000000" font-family="Verdana" font-size="12">QUESTIONS</text>
	<text x="20" y="345.7" fill="#000000" font-family="Verdana" font-size="12">id</text>
	<line x1="20" y1="348" x2="32" y2="348" stroke="#000000" stroke-width="1"/>
	<text x="20" y="362.7" fill="#000000" font-family="Verdana" font-size="12">user_id</text>
	<text x="20" y="379.8" fill="#000000" font-family="Verdana" font-size="12">title</text>
	<text x="20" y="396.8" fill="#000000" font-family="Verdana" font-size="12">content</text>
	<text x="20" y="413.8" fill="#000000" font-family="Verdana" font-size="12">status</text>
	<text x="20" y="430.8" fill="#000000" font-family="Verdana" font-size="12">createdAt</text>
	<text x="20" y="447.8" fill="#000000" font-family="Verdana" font-size="12">updatedAt</text>
</g>
</svg>